<?xml version="1.0" encoding="UTF-8" standalone="no"?>
<svg
   version="1.1"
   width="500"
   height="500"
   id="svg13"
   sodipodi:docname="vetcd.svg"
   inkscape:version="1.3.2 (091e20e, 2023-11-25)"
   xmlns:inkscape="http://www.inkscape.org/namespaces/inkscape"
   xmlns:sodipodi="http://sodipodi.sourceforge.net/DTD/sodipodi-0.dtd"
   xmlns="http://www.w3.org/2000/svg"
   xmlns:svg="http://www.w3.org/2000/svg">
  <defs
     id="defs13" />
  <sodipodi:namedview
     id="namedview13"
     pagecolor="#ffffff"
     bordercolor="#666666"
     borderopacity="1.0"
     inkscape:showpageshadow="2"
     inkscape:pageopacity="0.0"
     inkscape:pagecheckerboard="0"
     inkscape:deskcolor="#d1d1d1"
     inkscape:zoom="0.472"
     inkscape:cx="250"
     inkscape:cy="248.94068"
     inkscape:window-width="1440"
     inkscape:window-height="876"
     inkscape:window-x="0"
     inkscape:window-y="24"
     inkscape:window-maximized="0"
     inkscape:current-layer="svg13" />
  <path
     d="m 259.91102,6.9989179 c 1.88618,-0.023865 1.88618,-0.023865 3.81043,-0.048006 5.8618,0.3494177 9.38079,2.0519631 14.06745,5.5311381 3.31479,5.898486 5.00197,11.327385 6.74039,17.863275 4.17695,15.23331 8.70709,26.021644 22.37148,34.589722 14.08605,7.442107 27.07797,10.012695 42.78561,6.106935 9.45613,-2.986612 16.40013,-8.396458 24.01176,-14.653852 5.42474,-3.599718 8.75076,-4.715396 15.24513,-4.866134 7.67877,2.953835 13.11737,7.138147 19.07708,12.754527 7.14299,6.673419 14.4123,13.141089 21.8339,19.499195 5.45444,5.521394 6.72659,8.951962 6.72659,16.768052 -0.96275,6.47929 -3.38781,10.74845 -6.94713,16.19268 -8.03132,12.71016 -10.03119,25.841 -8.04989,40.70359 3.36176,14.85143 11.55426,25.50298 23.95664,34.01439 7.91688,4.74193 15.68758,5.83068 24.6734,7.13282 8.23645,1.33447 13.74704,2.39538 19.29763,9.09453 4.73154,10.47299 4.45098,21.64047 4.85197,32.93995 0.0979,1.99356 0.1956,3.98712 0.29637,6.04108 0.11258,2.88738 0.11258,2.88738 0.22744,5.83311 0.0699,1.74435 0.13986,3.48872 0.21192,5.28593 -0.43532,7.25564 -2.36261,12.1184 -7.13151,17.55437 -5.51848,3.33023 -9.54952,4.4662 -15.76891,5.87818 -15.28272,3.52684 -27.08132,10.55334 -35.61793,24.06723 -7.54172,15.54747 -9.61165,28.65234 -4.30061,45.13996 2.78093,7.22975 6.27683,12.90428 10.91695,19.07634 7.96037,11.06961 7.96037,11.06961 7.14011,18.98621 -3.46355,9.23826 -10.6628,16.19192 -17.28515,23.27009 -0.87764,0.96475 -1.75524,1.9295 -2.65946,2.92349 -2.71974,2.97739 -5.47845,5.91145 -8.25749,8.83285 -0.85801,0.92473 -1.716,1.84944 -2.60001,2.80219 -3.96409,4.03011 -7.36473,6.62456 -12.64512,8.64917 -8.00226,-0.19824 -13.69613,-3.33406 -20.7036,-7.015 -16.16014,-8.275 -29.67644,-12.14066 -47.52732,-6.3218 -14.74081,5.8934 -24.17731,14.76679 -30.86242,29.23836 -2.86144,8.45539 -4.04517,17.15206 -5.18967,25.98042 -1.88153,5.89205 -1.88153,5.89205 -6.68526,10.12045 -12.07091,5.99071 -25.34422,5.0843 -38.53324,5.19885 -1.98211,0.0514 -3.96422,0.10294 -6.00639,0.15597 -14.27102,0.11092 -14.27102,0.11092 -21.4376,-3.42085 -4.31672,-5.70179 -6.1156,-11.52535 -7.84311,-18.36237 -4.25424,-16.29873 -11.60719,-27.67813 -25.47286,-37.48721 -14.80707,-7.62071 -31.04592,-7.17622 -46.61758,-2.12806 -5.46719,2.55776 -9.814,5.85633 -14.5835,9.55896 -5.87846,4.52174 -8.73979,6.64013 -16.09974,8.09634 -12.28144,-2.90644 -20.889007,-12.45026 -29.773471,-20.96178 -1.170165,-1.1083 -2.340328,-2.21659 -3.545945,-3.35848 -3.131115,-2.97157 -6.254953,-5.94901 -9.355904,-8.95241 -0.961628,-0.8794 -1.923259,-1.75881 -2.914026,-2.66485 -4.193972,-4.68711 -4.043046,-8.92409 -4.143397,-15.08059 2.221698,-6.27678 5.676353,-11.85233 9.042316,-17.5652 7.330108,-13.28123 8.637675,-27.8875 4.686571,-42.55436 C 78.671143,324.73307 70.37089,314.35124 59.008898,307.05619 51.227812,304.00439 43.2683,302.41852 35.079829,300.88688 21.61754,298.25905 21.61754,298.25905 16.664384,291.08531 c -3.98693,-9.52549 -4.407637,-18.7622 -4.85198,-28.94724 -0.146701,-2.39329 -0.146701,-2.39329 -0.296361,-4.83493 -1.174614,-24.75588 -1.174614,-24.75588 6.33376,-33.56035 5.516195,-2.50408 10.99234,-3.76413 16.899211,-5.08103 17.003772,-4.22048 27.089748,-11.25948 36.272663,-26.33394 6.366695,-12.61795 7.030603,-25.95203 3.866421,-39.65686 -3.718334,-9.40128 -7.976245,-18.10843 -14.390532,-25.93883 -3.747018,-4.87052 -4.614959,-8.44518 -4.238579,-14.60533 2.094902,-8.1186 7.84889,-13.70944 13.33604,-19.790303 1.762247,-2.005437 3.524295,-4.011058 5.286169,-6.016805 1.873164,-2.101437 3.750096,-4.199469 5.630774,-6.294082 0.901223,-1.008069 1.802432,-2.016149 2.730965,-3.054758 6.353879,-6.917566 10.352037,-10.757441 19.674965,-11.848641 6.65443,0.722189 10.17479,2.908155 15.74825,6.58522 15.3067,9.365981 28.49151,12.026518 46.20404,8.207266 15.48282,-5.274107 25.19948,-14.588589 33.19192,-28.725426 2.4989,-8.06909 3.48656,-15.964657 4.34886,-24.358367 1.52084,-6.531936 3.61271,-9.643129 8.33244,-14.348854 7.58264,-4.408176 15.70906,-4.315303 24.25988,-4.6581706 1.34188,-0.068545 2.68375,-0.1372361 4.06629,-0.2079495 6.94454,-0.331475 13.88965,-0.5295172 20.84144,-0.6169371 z M 159.57712,147.34724 c -1.20314,1.04767 -2.40628,2.09536 -3.64587,3.17478 -16.51046,15.27342 -27.91357,36.00903 -35.16994,57.15969 -0.56176,1.52576 -1.12354,3.05151 -1.70231,4.6235 -10.73336,34.47542 -4.10691,73.05201 12.05843,104.47665 5.07161,9.40005 10.68408,17.8497 17.87357,25.76511 1.32368,1.47316 2.64735,2.9463 4.01115,4.46409 25.09339,26.59175 58.02423,41.36589 94.28056,42.38887 36.14635,0.39817 70.3661,-9.4528 97.55168,-34.43117 2.19703,-1.99697 2.19703,-1.99697 4.43846,-4.03429 27.34366,-26.10178 41.90744,-61.06654 43.19222,-98.75055 0.40034,-30.83417 -9.05359,-58.41726 -26.45842,-83.54216 -1.04848,-1.54864 -2.09697,-3.09727 -3.17721,-4.69283 -19.65603,-26.88147 -51.71835,-46.13488 -84.3074,-51.56486 -44.00957,-5.44907 -85.81614,4.47502 -118.94492,34.96317 z"
     fill="#d4e4f7"
     id="path1"
     style="stroke-width:1.76945" />
  <path
     d="m 252.86739,130.6 c 1.85503,0.0125 3.71006,0.0243 5.62129,0.0367 14.07403,0.29221 25.74568,2.0328 38.70812,7.83771 2.30962,0.9642 2.30962,0.9642 4.66589,1.94785 26.73896,12.18668 48.25851,35.65377 59.6297,62.64968 11.04565,30.16326 10.72574,61.5029 -1.7299,91.40976 -14.01442,29.77358 -36.43348,50.56201 -66.63886,62.86457 -28.88387,10.19131 -59.89963,9.14731 -87.88004,-3.41739 -30.36871,-14.98231 -51.44894,-37.47013 -62.75952,-69.87003 -10.80119,-31.92963 -8.78462,-59.03023 5.95558,-89.4645 6.16616,-12.102 13.69252,-21.84899 23.48795,-31.27633 1.20996,-1.25126 2.41994,-2.50252 3.66656,-3.7917 20.89316,-20.4301 48.6147,-29.2164 77.27323,-28.92644 z"
     fill="#d3e4f7"
     id="path2"
     style="stroke-width:1.76945" />
  <path
     d="m 108.41082,65.718273 c 0,0.58559 0,1.171197 0,1.774535 -2.29256,0.603908 -2.29256,0.603908 -4.63141,1.22 -5.192773,2.031079 -7.644287,3.450368 -11.688849,6.987266 -4.851982,4.214543 -4.851982,4.214543 -8.380687,4.214543 -0.655023,1.427407 -0.655023,1.427407 -1.323275,2.883629 -3.797207,7.256342 -7.427808,13.411654 -13.894294,18.521794 -4.852006,3.98107 -6.177466,6.24992 -7.719054,12.31089 -0.134898,4.13836 -0.161318,8.28439 0,12.42181 -3.528705,-3.5491 -3.528705,-3.5491 -4.521152,-9.87091 0.353826,-10.45125 6.634173,-16.41079 13.342928,-23.845413 1.762247,-2.005437 3.524295,-4.011059 5.286169,-6.016805 1.873164,-2.101437 3.750096,-4.199469 5.630774,-6.294083 0.901223,-1.008069 1.802432,-2.016149 2.730965,-3.054757 8.314574,-9.052199 12.940737,-11.811489 25.167885,-11.252499 z"
     fill="#e6eef7"
     id="path3"
     style="stroke-width:1.76945" />
  <path
     d="m 267.20278,7.1583562 c 0.58224,1.7568008 1.16447,3.5135888 1.76435,5.3236198 -18.04936,0 -36.09871,0 -54.695,0 6.75616,-4.5301074 12.6526,-4.349744 20.51063,-4.6581714 1.35779,-0.068545 2.71559,-0.137236 4.11452,-0.2079494 9.44148,-0.4453721 18.85451,-0.5144205 28.3055,-0.457499 z"
     fill="#e7eef7"
     id="path4"
     style="stroke-width:1.76945" />
  <path
     d="m 191.3355,147.34724 c 0.58225,1.1712 1.16449,2.3424 1.76437,3.54909 -13.1861,11.71553 -13.1861,11.71553 -18.63601,15.85997 -6.25758,5.32545 -11.38007,11.56183 -16.65109,17.85635 0,-8.78133 6.4694,-13.45888 12.35048,-19.51997 15.70658,-14.9968 15.70658,-14.9968 21.17225,-17.74544 z"
     fill="#e0e8f1"
     id="path5"
     style="stroke-width:1.76945" />
  <path
     d="m 138.40486,227.20168 c 0.58224,0 1.16448,0 1.76436,0 0.048,3.10529 0.0819,6.21082 0.11031,9.31635 0.0205,1.72936 0.0409,3.45869 0.062,5.24044 -0.17231,4.96318 -0.17231,4.96318 -1.17165,8.81727 -1.15433,3.62695 -1.15433,3.62695 0.99934,8.56771 0.0697,4.14001 0.0777,8.28194 0,12.4218 -6.70158,-12.58187 -7.2236,-26.55633 -3.5287,-40.25995 0.87334,-2.03128 0.87334,-2.03128 1.76434,-4.10362 z"
     fill="#e5eaf0"
     id="path6"
     style="stroke-width:1.76945" />
  <path
     d="m 355.42053,342.54697 c 0.58223,1.75679 1.16446,3.5136 1.76435,5.32362 -7.00454,7.4853 -14.65897,13.50831 -22.93661,19.51998 0,-5.32363 0,-5.32363 3.73546,-9.21236 2.40855,-2.08278 2.40855,-2.08278 4.86575,-4.20761 1.59663,-1.39309 3.19323,-2.78618 4.83819,-4.22148 1.38738,-1.20551 2.77474,-2.41102 4.20415,-3.65307 1.16447,-1.17119 2.32893,-2.3424 3.52871,-3.54908 z"
     fill="#e4ecf6"
     id="path7"
     style="stroke-width:1.76945" />
  <path
     d="m 126.05438,182.8381 c 1.16448,0 2.32896,0 3.52872,0 -1.14537,10.65573 -5.04244,20.23118 -8.82179,30.16723 -1.16447,-2.34239 -2.32895,-4.68478 -3.5287,-7.09817 1.16447,0 2.32895,0 3.5287,0 0.23427,-1.36792 0.46852,-2.73584 0.70987,-4.14522 0.4674,-2.66951 0.4674,-2.66951 0.94423,-5.39295 0.30702,-1.77052 0.61407,-3.54105 0.93041,-5.36522 0.94421,-4.61658 0.94421,-4.61658 2.70856,-8.16567 z"
     fill="#e3ecf6"
     id="path8"
     style="stroke-width:1.76945" />
  <path
     d="m 445.40263,287.53614 c 1.16447,0 2.32895,0 3.5287,0 -2.94208,6.99416 -7.45811,12.04788 -12.35049,17.74543 -1.16447,-1.75681 -2.32894,-3.5136 -3.5287,-5.32363 1.09169,-0.4392 2.18338,-0.87839 3.30817,-1.3309 4.40231,-2.60456 5.33942,-4.667 7.27796,-9.31636 0.58223,-0.58559 1.16447,-1.17119 1.76436,-1.77454 z"
     fill="#e2ebf5"
     id="path9"
     style="stroke-width:1.76945" />
  <path
     d="m 145.46229,200.58353 c 2.4248,6.77445 1.19931,12.55055 0,19.51998 -1.74671,0.58559 -3.49344,1.1712 -5.29307,1.77454 0.89623,-7.66204 2.11163,-14.25494 5.29307,-21.29452 z"
     fill="#dfe8f0"
     id="path10"
     style="stroke-width:1.76945" />
  <path
     d="m 208.97906,138.47452 c 1.16448,0.58561 2.32896,1.17121 3.52873,1.77455 -1.74673,0.5856 -3.49344,1.1712 -5.29308,1.77454 0,1.17121 0,2.34241 0,3.5491 -5.45811,1.76452 -8.65026,1.55877 -14.11484,0 2.56505,-1.23685 5.13996,-2.45302 7.71905,-3.66 2.14926,-1.01908 2.14926,-1.01908 4.34197,-2.05874 1.25999,-0.45522 2.52,-0.91043 3.81817,-1.37945 z"
     fill="#e4ebf3"
     id="path11"
     style="stroke-width:1.76945" />
  <path
     d="m 425.99472,330.12518 c 0.58223,0 1.16447,0 1.76435,0 0.58224,5.85598 1.16447,11.71197 1.76435,17.74541 -1.7467,0 -3.49341,0 -5.29306,0 0.58224,-5.85598 1.16448,-11.71196 1.76436,-17.74541 z"
     fill="#dfe8f5"
     id="path12"
     style="stroke-width:1.76945" />
  <path
     d="m 230.15131,134.92544 c -4.61684,2.48759 -8.88735,4.62261 -14.11482,5.32363 -1.16448,-1.17119 -2.32895,-2.34239 -3.5287,-3.54909 11.68885,-3.77089 11.68885,-3.77089 17.64352,-1.77454 z"
     fill="#e0e9f1"
     id="path13"
     style="stroke-width:1.76945" />
</svg>
